<svg xmlns="http://www.w3.org/2000/svg" viewBox="0 0 2084 2084" xml:space="preserve" style="fill-rule:evenodd;clip-rule:evenodd;stroke-linejoin:round;stroke-miterlimit:2" width="2084" height="2084"><path d="M0 0h2083.33v2083.33H0z"></path><path style="fill:#fff" d="M104.167 399.465h165.254v165.254H104.167zM104.167 1144.78h165.254v165.254H104.167zM104.167 772.12h165.254v165.254H104.167zM104.167 1517.43h165.254v165.254H104.167z"></path><path d="M637.727 868.818v-35.411H464.87v408.134h39.613v-196.865h115.238v-33.611H504.483V868.818h133.244ZM681.541 833.407h39.613v408.134h-39.613zM976.238 1241.54v-36.612H838.793V833.406H799.18v408.134h177.058ZM1363.96 1240.34l-58.219-408.134-37.812 2.401-95.432 348.114h-1.2l-90.63-348.114-37.812-2.401-58.219 408.134 37.212 2.401 42.614-331.909h1.2l86.429 330.709h41.413l88.229-330.709h1.2l40.214 331.909 40.813-2.401ZM728.957 1656.88l-22.808-55.819s-33.01 13.805-76.225 13.805c-66.621 0-122.44-57.019-122.44-142.247 0-89.429 61.22-147.648 134.444-147.648 38.413 0 66.622 8.403 66.622 8.403l19.807-56.419s-41.414-16.805-103.834-16.805c-107.435 0-196.865 87.028-196.865 211.269 0 129.642 83.428 211.269 185.461 211.269 63.621 0 115.838-25.808 115.838-25.808ZM1029.06 1675.48v-64.221H855.003v-343.913h-76.225v408.134h250.282ZM1386.17 1523.03v-255.684h-70.823v245.481c0 60.619-29.41 103.233-89.429 103.233-58.219 0-88.229-31.81-88.229-104.434v-244.28h-76.225v255.084c0 91.23 50.416 160.252 167.455 160.252 91.23 0 157.251-60.019 157.251-159.652ZM1739.09 1555.44c0-25.209-10.203-48.016-24.608-62.421-32.411-32.411-75.625-33.011-75.625-33.011v-1.8c41.414-11.404 73.224-37.213 73.224-88.229 0-77.426-72.023-102.634-145.247-102.634h-105.035v408.134h117.639c82.227 0 159.652-30.01 159.652-120.039Zm-99.633-176.458c0 42.013-36.011 55.818-72.023 55.818h-34.211v-109.836h45.014c31.21 0 61.22 16.205 61.22 54.018Zm24.608 171.656c0 48.016-45.615 64.821-88.229 64.821h-42.613v-126.041h55.218c37.812 0 75.624 20.407 75.624 61.22ZM782.975 683.958c0-46.815-36.612-82.827-78.626-94.831v-1.201c30.01-14.404 51.617-40.213 51.617-81.626 0-82.227-76.225-106.835-165.054-106.835H451.066v408.133h154.851c94.23 0 177.058-29.409 177.058-123.64ZM634.126 520.104c0 20.407-16.806 29.41-40.814 29.41h-22.807v-56.419h30.61c19.206 0 33.011 8.403 33.011 27.009Zm25.208 154.251c0 25.208-26.409 36.012-57.619 36.012h-31.21v-70.223h40.813c27.009 0 48.016 13.204 48.016 34.211ZM1256.53 805.198l-175.858-405.733H955.831L779.373 805.198l131.444 3.601 31.81-84.628h146.448l31.21 84.628 136.245-3.601Zm-201.066-170.456h-79.226l39.013-106.835h1.8l38.413 106.835ZM1552.43 506.9V399.465h-363.719V506.9h116.438v300.698h130.843V506.9h116.438ZM1979.17 807.598V399.465h-130.843v142.246h-138.646V399.465h-130.843v408.133h130.843v-154.25h138.646v154.25h130.843Z" style="fill:#fff;fill-rule:nonzero"></path><style>@media (prefers-color-scheme: light) { :root { filter: none; } }
@media (prefers-color-scheme: dark) { :root { filter: none; } }
</style></svg>