<?xml version="1.0" encoding="UTF-8" standalone="no"?><!DOCTYPE svg PUBLIC "-//W3C//DTD SVG 1.1//EN" "http://www.w3.org/Graphics/SVG/1.1/DTD/svg11.dtd"><svg width="100%" height="100%" viewBox="0 0 5171 509" version="1.1" xmlns="http://www.w3.org/2000/svg" xmlns:xlink="http://www.w3.org/1999/xlink" xml:space="preserve" xmlns:serif="http://www.serif.com/" style="fill-rule:evenodd;clip-rule:evenodd;stroke-linejoin:round;stroke-miterlimit:2;"><rect id="Landscape" x="-0" y="-0" width="5170.61" height="508.542" style="fill:none;"/><clipPath id="_clip1"><rect x="-0" y="-0" width="5170.61" height="508.542"/></clipPath><g clip-path="url(#_clip1)"><g transform="matrix(4.30631,0,0,4.30631,-780.434,-2133.94)"><g transform="matrix(167.719,0,0,167.719,170.161,611.608)"><path d="M0.554,-0.2c0,-0.042 -0.016,-0.08 -0.04,-0.104c-0.055,-0.054 -0.127,-0.055 -0.127,-0.055l0,-0.003c0.069,-0.019 0.123,-0.062 0.123,-0.147c0,-0.129 -0.118,-0.171 -0.251,-0.171l-0.193,0l0,0.68l0.215,-0c0.146,-0 0.273,-0.05 0.273,-0.2Zm-0.19,-0.29c-0,0.059 -0.051,0.081 -0.102,0.081l-0.053,-0l-0,-0.157l0.067,-0c0.045,-0 0.088,0.022 0.088,0.076Zm0.041,0.278c0,0.07 -0.067,0.094 -0.13,0.094l-0.066,-0l0,-0.183l0.085,-0c0.055,-0 0.111,0.029 0.111,0.089Z" style="fill:#fff;fill-rule:nonzero;"/></g><g transform="matrix(167.719,0,0,167.719,264.251,611.608)"><path d="M0.723,-0.004l-0.284,-0.676l-0.151,0l-0.284,0.676l0.154,0.006l0.062,-0.162l0.281,0l0.061,0.162l0.161,-0.006Zm-0.261,-0.261l-0.202,0l0.1,-0.262l0.003,0l0.099,0.262Z" style="fill:#fff;fill-rule:nonzero;"/></g><g transform="matrix(167.719,0,0,167.719,368.573,611.608)"><path d="M0.573,-0.55l0,-0.13l-0.561,0l-0,0.13l0.203,0l-0,0.55l0.157,-0l0,-0.55l0.201,0Z" style="fill:#fff;fill-rule:nonzero;"/></g><g transform="matrix(167.719,0,0,167.719,464.34,611.608)"><path d="M0.684,-0l0,-0.68l-0.157,0l0,0.263l-0.305,0l-0,-0.263l-0.156,0l-0,0.68l0.156,-0l-0,-0.294l0.305,0l0,0.294l0.157,-0Z" style="fill:#fff;fill-rule:nonzero;"/></g><g transform="matrix(167.719,0,0,167.719,644.806,611.608)"><path d="M0.404,-0.648l0,-0.032l-0.33,0l-0,0.68l0.037,-0l-0,-0.341l0.262,0l0,-0.031l-0.262,0l0,-0.276l0.293,0Z" style="fill:#fff;fill-rule:nonzero;"/></g><g transform="matrix(167.719,0,0,167.719,713.571,611.608)"><rect x="0.078" y="-0.68" width="0.037" height="0.68" style="fill:#fff;fill-rule:nonzero;"/></g><g transform="matrix(167.719,0,0,167.719,743.761,611.608)"><path d="M0.41,-0l0,-0.033l-0.299,0l-0,-0.647l-0.037,0l-0,0.68l0.336,-0Z" style="fill:#fff;fill-rule:nonzero;"/></g><g transform="matrix(167.719,0,0,167.719,812.861,611.608)"><path d="M0.8,-0.001l-0.106,-0.68l-0.034,0.002l-0.248,0.635l-0.247,-0.635l-0.034,-0.002l-0.106,0.68l0.034,0.002l0.093,-0.616l0.24,0.615l0.039,-0l0.238,-0.615l0.094,0.616l0.037,-0.002Z" style="fill:#fff;fill-rule:nonzero;"/></g><g transform="matrix(167.719,0,0,167.719,997.52,611.608)"><path d="M0.552,-0.03l-0.045,-0.116c0,0 -0.052,0.019 -0.124,0.019c-0.102,0 -0.183,-0.078 -0.183,-0.209c0,-0.136 0.097,-0.222 0.214,-0.222c0.053,0 0.097,0.012 0.097,0.012l0.04,-0.119c0,0 -0.067,-0.027 -0.179,-0.027c-0.188,0 -0.335,0.152 -0.335,0.352c-0,0.216 0.141,0.352 0.315,0.352c0.115,0 0.2,-0.042 0.2,-0.042Z" style="fill:#fff;fill-rule:nonzero;"/></g><g transform="matrix(167.719,0,0,167.719,1091.28,611.608)"><path d="M0.505,-0l0,-0.133l-0.283,0l0,-0.547l-0.156,0l0,0.68l0.439,-0Z" style="fill:#fff;fill-rule:nonzero;"/></g><g transform="matrix(167.719,0,0,167.719,1176.31,611.608)"><path d="M0.624,-0.257l0,-0.423l-0.147,-0l0,0.402c0,0.098 -0.046,0.155 -0.129,0.155c-0.088,-0 -0.13,-0.047 -0.13,-0.157l0,-0.4l-0.156,-0l0,0.421c0,0.158 0.085,0.271 0.289,0.271c0.162,-0 0.273,-0.099 0.273,-0.269Z" style="fill:#fff;fill-rule:nonzero;"/></g><g transform="matrix(167.719,0,0,167.719,1289.02,611.608)"><path d="M0.554,-0.2c0,-0.042 -0.016,-0.08 -0.04,-0.104c-0.055,-0.054 -0.127,-0.055 -0.127,-0.055l0,-0.003c0.069,-0.019 0.123,-0.062 0.123,-0.147c0,-0.129 -0.118,-0.171 -0.251,-0.171l-0.193,0l0,0.68l0.215,-0c0.146,-0 0.273,-0.05 0.273,-0.2Zm-0.19,-0.29c-0,0.059 -0.051,0.081 -0.102,0.081l-0.053,-0l-0,-0.157l0.067,-0c0.045,-0 0.088,0.022 0.088,0.076Zm0.041,0.278c0,0.07 -0.067,0.094 -0.13,0.094l-0.066,-0l0,-0.183l0.085,-0c0.055,-0 0.111,0.029 0.111,0.089Z" style="fill:#fff;fill-rule:nonzero;"/></g></g></g></svg>